<svg width="34" height="34" viewBox="0 0 34 34" fill="none" xmlns="http://www.w3.org/2000/svg">
<path d="M4.07998 34C4.32323 33.6145 4.54833 33.2517 4.77706 32.8888C5.86262 31.1578 6.95181 29.4306 8.03374 27.6996C8.08457 27.6165 8.11724 27.4993 8.11724 27.4011C8.12087 20.4658 8.12087 13.5305 8.1245 6.59515C8.1245 6.46665 8.09909 6.36083 8.03374 6.25122C6.82474 4.21032 5.61937 2.16941 4.41037 0.128502C4.38859 0.090707 4.3668 0.0491329 4.33776 0C8.77802 0 13.2038 0 17.6476 0C17.6476 4.25189 17.6476 8.49622 17.6476 12.7443C17.6476 16.9924 17.6476 21.2368 17.6476 25.5C23.0936 25.5 28.5323 25.5 34 25.5C33.9528 25.568 33.9238 25.6134 33.8911 25.655C31.8797 28.4026 29.8683 31.1578 27.857 33.9131C27.7989 33.9924 27.7372 33.9962 27.6609 33.9962C24.5967 33.9962 21.536 33.9962 18.4718 33.9962C13.7447 33.9962 9.01401 33.9962 4.28693 33.9962C4.22521 34 4.16712 34 4.07998 34ZM9.19554 2.82325C9.22821 2.88373 9.25 2.9253 9.27178 2.96309C9.77281 3.80969 10.2738 4.66007 10.7712 5.50667C10.8075 5.57092 10.833 5.65407 10.833 5.72966C10.8366 13.247 10.8366 20.7606 10.833 28.2779C10.833 28.3535 10.8075 28.4366 10.7676 28.5009C10.2811 29.287 9.78733 30.0656 9.2972 30.8479C9.23548 30.9462 9.17375 31.052 9.10114 31.173C9.17375 31.173 9.21732 31.173 9.26452 31.173C14.9465 31.173 20.6284 31.173 26.3103 31.1767C26.4047 31.1767 26.4664 31.1503 26.5245 31.0671C27.0401 30.3604 27.5556 29.6536 28.0748 28.9469C28.22 28.7503 28.3616 28.55 28.5214 28.327C23.9758 28.327 19.4557 28.327 14.9174 28.327C14.9174 19.8157 14.9174 11.3195 14.9174 2.82325C13.0113 2.82325 11.1161 2.82325 9.19554 2.82325Z" fill="#F9F9F9"/>
<path d="M20.4 22.6668C20.4 21.7052 20.4 3.82949 20.4 2.83342C23.9202 3.68774 26.7661 5.78716 28.8279 9.26958C31.2478 13.3535 31.8254 17.8511 30.7864 22.6668C29.9249 22.6668 29.0924 22.6668 28.2567 22.6668C26.4634 22.6668 26.4634 22.6668 24.184 22.6668C20.9795 22.6668 23.5954 22.6668 20.4 22.6668Z" fill="#F9F9F9"/>
<path d="M5.44 28.3334C-1.96236 21.958 -1.66276 13.1516 5.44 7.08342C5.44 14.1637 5.44 21.235 5.44 28.3334Z" fill="#F9F9F9"/>
</svg>
