<svg width="70" height="17" viewBox="0 0 70 17" fill="none" xmlns="http://www.w3.org/2000/svg">
<path d="M46.5738 0V12.2476C48.2636 12.3179 49.9489 12.4028 51.6296 12.503V15.0998C48.964 14.9409 46.2958 14.8203 43.6258 14.7381V0H46.5738V0ZM69.9995 0.00146673L66.1609 7.95776L69.9986 16.8117L69.9943 16.8133C68.8754 16.671 67.7554 16.5356 66.6343 16.4071L64.4792 11.4378L62.3036 15.9458C61.2725 15.844 60.2401 15.7478 59.2053 15.6574L62.9474 7.90447L59.5203 0.00158896H62.7093L64.6281 4.42428L66.7618 0.00146673H69.9995ZM33.5084 14.6094V0.00134451H41.7375V2.62142H36.4563V6.01691H40.4522V8.61364H36.4563V14.6089L33.5084 14.6094V14.6094ZM22.5008 2.62154V0.00122228H31.6185V2.62142H28.5335V14.6804C27.5495 14.7036 26.5667 14.7308 25.5858 14.7639V2.62154H22.5008ZM12.423 15.5188V0.00171119H20.6111V2.62166H15.3705V6.17067C16.5744 6.15686 18.2863 6.14134 19.3513 6.14354V8.74051C18.0182 8.72584 16.5133 8.75689 15.3705 8.76703V12.6984C17.1161 12.5754 18.863 12.4686 20.6111 12.3781V14.9751C17.8785 15.116 15.1488 15.2974 12.423 15.519V15.5188ZM6.6402 9.51592L6.64007 0.00122228H9.58799V15.7637C8.51038 15.8627 7.43467 15.9682 6.36102 16.0796L2.9473 7.31216V16.455C1.96279 16.5697 0.980193 16.6891 -0.000488281 16.8139V0.00146673H2.80101L6.64007 9.51592H6.6402ZM54.0616 15.2564V0.00146673H57.0096V15.474C56.0281 15.3958 55.0458 15.3237 54.0616 15.2565V15.2564Z" fill="#F9F9F9" fill-opacity="0.8"/>
</svg>
