<svg width="50" height="26" viewBox="0 0 50 26" fill="none" xmlns="http://www.w3.org/2000/svg">
<path d="M47.349 22.9879L42.8571 22.2391V21.6401L47.2018 21.4903L47.1281 20.3672H41.6053L41.3107 23.2126L45.8763 24.0362V24.5604L41.0898 24.785L40.9426 25.8333H47.6436L47.349 22.9879ZM4.34462 22.5386L4.27099 23.587L5.89101 23.6618V24.7101L2.43005 24.6353L2.57732 21.5652L7.29013 21.4903L7.2165 20.3672H1.10457L0.589104 25.8333H7.51105L7.36377 22.4638L4.34462 22.5386ZM33.7261 24.5604V23.587L36.9661 23.5121V22.4638L33.6524 22.3889V21.4155L37.997 21.3406V20.2174H32.106L31.9588 25.8333H38.1443L38.0707 24.7101L33.7261 24.5604ZM29.0133 25.8333L28.4241 20.2923H26.8778L24.595 22.913L22.3122 20.2923H20.7658L20.2504 25.8333H22.0913L22.2386 22.2391L24.595 24.7101L26.9514 22.2391L27.0987 25.8333H29.0133ZM21.2077 0H17.5258L17.2312 17.1473H21.6495L21.2077 0ZM36.2297 0H24.7423L24.3004 17.1473H37.0398L36.2297 0ZM32.6951 13.4034L28.6451 13.5531L28.4241 3.44444L32.6951 3.5942V13.4034ZM50 3.74396L49.5582 0H38.218L38.3652 3.29469L41.9735 3.44444L42.3417 17.1473H46.8336L45.5081 3.5942L50 3.74396ZM10.3093 17.1473H15.1694L12.0029 9.43478L14.5066 8.01208L12.813 0H0.441829L0 3.74396L2.79824 3.66908L1.47275 17.2222H5.81738L5.96465 12.8792L9.05744 11.157L10.3093 17.1473ZM6.18557 3.44444L9.72018 3.36957L10.162 6.81401L6.03829 8.76087L6.18557 3.44444ZM15.7585 25.8333H17.5994L16.1267 20.2923H11.7084L10.2356 25.8333H12.0766L12.3711 24.4106L15.3903 24.4855L15.7585 25.8333ZM12.6657 23.3623L13.0339 21.5652L14.8012 21.4903L15.1694 23.2874L12.6657 23.3623Z" fill="#F9F9F9"/>
</svg>
